<svg width="512" height="512" viewBox="0 0 512 512" fill="none" xmlns="http://www.w3.org/2000/svg">
<rect width="512" height="512" fill="#D9D9D9"/>
<path d="M256 52C199.688 52 154 96.1518 154 150.571C154 204.991 199.688 249.143 256 249.143C312.313 249.143 358 204.991 358 150.571C358 96.1518 312.313 52 256 52ZM202.28 282C119.32 298.1 52 347.971 52 429.857V446.286C52 482.737 82.2813 512 120 512H392C429.719 512 460 482.737 460 446.286V429.857C460 347.971 393.7 298.429 307 282L282.86 278.386L270.96 277.4L258.72 277.071L244.78 277.4L230.5 278.386L216.22 280.029L202.28 282Z" fill="#2E3436"/>
</svg>
